<?xml version="1.0" encoding="UTF-8"?>
<svg width="36px" height="35px" viewBox="0 0 36 35" version="1.1" xmlns="http://www.w3.org/2000/svg" xmlns:xlink="http://www.w3.org/1999/xlink">
    <!-- Generator: sketchtool 50.2 (55047) - http://www.bohemiancoding.com/sketch -->
    <title>4C0C7A07-5648-4550-99D1-18143AC0BD42</title>
    <desc>Created with sketchtool.</desc>
    <defs></defs>
    <g id="Page-1" stroke="none" stroke-width="1" fill="none" fill-rule="evenodd">
        <g id="Wedding-Site---filled-in-form" transform="translate(-1122.000000, -2211.000000)" fill="#4A4A4A" fill-rule="nonzero">
            <g id="Dining" transform="translate(0.000000, 2025.000000)">
                <g id="kids-friendly-icon" transform="translate(1122.000000, 186.000000)">
                    <g id="Group">
                        <path d="M20.592,18.8571429 C17.856,18.8571429 15.696,21.0714286 15.696,23.7142857 C15.696,24.1428571 15.984,24.4285714 16.416,24.4285714 C16.848,24.4285714 17.136,24.1428571 17.136,23.7142857 C17.136,21.7857143 18.72,20.2857143 20.592,20.2857143 C21.024,20.2857143 21.312,20 21.312,19.5714286 C21.312,19.1428571 21.024,18.8571429 20.592,18.8571429 Z" id="Shape"></path>
                        <path d="M35.28,10.2857143 C35.424,9.92857143 35.208,9.5 34.776,9.42857143 C33.912,9.14285714 32.976,9.07142857 32.04,9.07142857 C28.8,9.07142857 25.848,10.6428571 24.048,13.2142857 L24.552,8.64285714 C24.552,8.42857143 24.48,8.21428571 24.408,8.07142857 C24.264,7.92857143 24.048,7.85714286 23.904,7.85714286 L11.16,7.85714286 L9.072,3.42857143 C9,3.21428571 8.856,3.14285714 8.64,3.07142857 L1.656,0.714285714 C1.296,0.642857143 0.864,0.857142857 0.72,1.21428571 C0.648,1.57142857 0.864,2 1.224,2.14285714 L7.92,4.28571429 L9.576,7.78571429 L3.672,7.78571429 C3.456,7.78571429 3.24,7.85714286 3.168,8 C3.024,8.14285714 2.952,8.35714286 3.024,8.57142857 L5.904,34.3571429 C5.976,34.7142857 6.264,35 6.624,35 L20.592,35 C20.592,35 20.592,35 20.664,35 C20.664,35 20.664,35 20.664,35 L20.952,35 C21.024,35 21.096,35 21.168,34.9285714 C21.816,34.8571429 22.392,34.5714286 22.968,34.1428571 C23.328,33.8571429 23.832,33.8571429 24.192,34.1428571 C24.984,34.7142857 25.776,35 26.568,35 C30.6,35 33.624,27.5 33.624,23.7142857 C33.624,20.4285714 31.392,17.7142857 28.368,16.9285714 C31.608,16.0714286 34.272,13.5714286 35.28,10.2857143 Z M24.192,17.5 C24.192,17.3571429 24.12,17.2142857 24.12,17.0714286 C24.336,17.1428571 24.552,17.1428571 24.84,17.1428571 C24.552,17.2857143 24.336,17.4285714 24.192,17.5 Z M7.272,33.5714286 L4.536,9.21428571 L23.04,9.21428571 L22.464,14.1428571 C21.96,13.6428571 21.312,13.2142857 20.52,13 C20.16,12.8571429 19.728,13.0714286 19.656,13.5 C19.512,13.8571429 19.728,14.2857143 20.16,14.3571429 C21.744,14.7857143 22.392,16.2857143 22.68,17.2857143 C22.104,17 21.384,16.6428571 20.664,16.6428571 C16.776,16.6428571 13.608,19.7857143 13.608,23.6428571 C13.608,26.3571429 15.264,31.1428571 17.64,33.5 L7.272,33.5 L7.272,33.5714286 Z M32.184,23.7142857 C32.184,27.2142857 29.376,33.5714286 26.568,33.5714286 C26.064,33.5714286 25.56,33.3571429 25.056,33 C24.624,32.7142857 24.12,32.5 23.616,32.5 C23.112,32.5 22.608,32.6428571 22.176,33 C21.672,33.3571429 21.24,33.5 20.736,33.5714286 C20.736,33.5714286 20.664,33.5714286 20.664,33.5714286 C17.856,33.5714286 15.048,27.2142857 15.048,23.7142857 C15.048,20.6428571 17.568,18.1428571 20.664,18.1428571 C21.24,18.1428571 21.96,18.5714286 22.536,18.8571429 C22.824,19.0714286 23.184,19.1428571 23.544,19.1428571 C23.544,19.1428571 23.616,19.1428571 23.616,19.1428571 C23.616,19.1428571 23.616,19.1428571 23.616,19.1428571 C23.616,19.1428571 23.688,19.1428571 23.688,19.1428571 C24.048,19.1428571 24.408,19.0714286 24.696,18.8571429 C25.272,18.5 25.92,18.1428571 26.568,18.1428571 C29.664,18.1428571 32.184,20.6428571 32.184,23.7142857 Z M25.92,15.8571429 C25.416,15.8571429 24.84,15.7857143 24.336,15.7142857 C25.56,12.5714286 28.656,10.5 32.04,10.5 C32.544,10.5 33.12,10.5714286 33.624,10.6428571 C32.4,13.7142857 29.304,15.8571429 25.92,15.8571429 Z" id="Shape"></path>
                    </g>
                </g>
            </g>
        </g>
    </g>
</svg>