<?xml version="1.0" encoding="UTF-8"?>
<svg width="25px" height="39px" viewBox="0 0 25 39" version="1.1" xmlns="http://www.w3.org/2000/svg" xmlns:xlink="http://www.w3.org/1999/xlink">
    <!-- Generator: sketchtool 50.2 (55047) - http://www.bohemiancoding.com/sketch -->
    <title>3139DA26-86FC-40AE-8C8F-93BA7D4D310E</title>
    <desc>Created with sketchtool.</desc>
    <defs></defs>
    <g id="Page-1" stroke="none" stroke-width="1" fill="none" fill-rule="evenodd">
        <g id="Wedding-Site---filled-in-form" transform="translate(-289.000000, -2209.000000)" fill="#4A4A4A" fill-rule="nonzero">
            <g id="Dining" transform="translate(0.000000, 2025.000000)">
                <g id="standard-icon" transform="translate(289.000000, 184.000000)">
                    <g id="Group">
                        <path d="M11.9354839,0.795918367 C11.4516129,0.795918367 11.1290323,1.11428571 11.1290323,1.59183673 L11.1290323,10.2673469 L9.03225806,10.2673469 L9.03225806,1.59183673 C9.03225806,1.11428571 8.70967742,0.795918367 8.22580645,0.795918367 C7.74193548,0.795918367 7.41935484,1.11428571 7.41935484,1.59183673 L7.41935484,10.2673469 L5.32258065,10.2673469 L5.32258065,1.59183673 C5.32258065,1.11428571 5,0.795918367 4.51612903,0.795918367 C4.03225806,0.795918367 3.70967742,1.11428571 3.70967742,1.59183673 L3.70967742,10.2673469 L1.61290323,10.2673469 L1.61290323,1.59183673 C1.61290323,1.11428571 1.29032258,0.795918367 0.806451613,0.795918367 C0.322580645,0.795918367 0,1.11428571 0,1.59183673 L0,11.0632653 C0,13.7693878 1.69354839,15.9979592 4.11290323,16.9530612 L3.22580645,35.8163265 C3.22580645,36.6122449 3.46774194,37.4081633 4.11290323,38.044898 C4.67741935,38.6816327 5.48387097,39 6.37096774,39 C7.25806452,39 8.06451613,38.6816327 8.62903226,38.044898 C9.19354839,37.4081633 9.51612903,36.6122449 9.51612903,35.8163265 L8.70967742,16.9530612 C11.1290323,15.9979592 12.8225806,13.7693878 12.8225806,11.0632653 L12.8225806,1.59183673 C12.7419355,1.11428571 12.3387097,0.795918367 11.9354839,0.795918367 Z M7.41935484,36.9306122 C6.85483871,37.4877551 5.80645161,37.4877551 5.24193548,36.9306122 C4.91935484,36.6122449 4.83870968,36.2142857 4.83870968,35.8163265 L5.64516129,17.2714286 C5.88709677,17.2714286 6.85483871,17.2714286 7.09677419,17.2714286 L7.90322581,35.8163265 C7.82258065,36.2938776 7.74193548,36.6918367 7.41935484,36.9306122 Z M6.37096774,15.7591837 C4.03225806,15.7591837 2.01612903,14.0877551 1.69354839,11.8591837 L11.1290323,11.8591837 C10.6451613,14.0081633 8.70967742,15.7591837 6.37096774,15.7591837 Z" id="Shape"></path>
                        <path d="M17.983871,0.955102041 C17.7419355,0.795918367 17.4193548,0.716326531 17.0967742,0.875510204 C16.8548387,1.03469388 16.6129032,1.27346939 16.6129032,1.59183673 L16.6129032,24.9122449 L16.6129032,38.2040816 C16.6129032,38.6816327 16.9354839,39 17.4193548,39 L21.2903226,39 C21.7741935,39 22.0967742,38.6816327 22.0967742,38.2040816 L22.0967742,25.7081633 L23.3870968,25.7081633 C23.8709677,25.7081633 24.1935484,25.3897959 24.1935484,24.9122449 L24.1935484,13.6897959 C24.2741935,8.6755102 21.9354839,4.05918367 17.983871,0.955102041 Z M20.483871,37.4081633 L18.2258065,37.4081633 L18.2258065,25.7081633 L20.483871,25.7081633 L20.483871,37.4081633 Z M22.6612903,24.1163265 L21.3709677,24.1163265 L18.3064516,24.1163265 L18.3064516,3.34285714 C21.1290323,6.04897959 22.6612903,9.78979592 22.6612903,13.6897959 L22.6612903,24.1163265 Z" id="Shape"></path>
                    </g>
                </g>
            </g>
        </g>
    </g>
</svg>