<?xml version="1.0" encoding="UTF-8"?>
<svg width="38px" height="42px" viewBox="0 0 38 42" version="1.1" xmlns="http://www.w3.org/2000/svg" xmlns:xlink="http://www.w3.org/1999/xlink">
    <!-- Generator: sketchtool 50.2 (55047) - http://www.bohemiancoding.com/sketch -->
    <title>E7F57105-B822-4EDD-B8EC-D89437B1175C</title>
    <desc>Created with sketchtool.</desc>
    <defs></defs>
    <g id="Page-1" stroke="none" stroke-width="1" fill="none" fill-rule="evenodd">
        <g id="Wedding-Site---filled-in-form" transform="translate(-704.000000, -2208.000000)" fill="#4A4A4A" fill-rule="nonzero">
            <g id="Dining" transform="translate(0.000000, 2025.000000)">
                <g id="vegetarian-icon" transform="translate(723.000000, 206.000000) rotate(-46.000000) translate(-723.000000, -206.000000) translate(706.000000, 190.000000)">
                    <path d="M27.9083333,3.85454545 C29.6791667,3.2 31.45,2.47272727 33.2916667,1.6 C33.6458333,1.45454545 33.7875,1.01818182 33.6458333,0.654545455 C33.5041667,0.290909091 33.0791667,0.145454545 32.725,0.290909091 C18.5583333,7.49090909 4.0375,6.32727273 1.13333333,5.96363636 C0.779166667,5.89090909 0.425,6.18181818 0.354166667,6.61818182 C0.283333333,6.98181818 0.566666667,7.34545455 0.991666667,7.41818182 C2.55,7.56363636 4.4625,7.70909091 6.8,7.70909091 C7.4375,7.70909091 8.14583333,7.70909091 8.85416667,7.63636364 C7.225,8.50909091 5.80833333,9.67272727 4.60416667,11.1272727 C1.275,14.9090909 -0.283333333,20.0727273 0.283333333,25.7454545 C0.283333333,26.1090909 0.566666667,26.4 0.920833333,26.4 C1.62916667,26.4727273 2.3375,26.4727273 3.04583333,26.4727273 C3.04583333,26.4727273 3.04583333,26.4727273 3.04583333,26.4727273 C8.2875,26.4727273 12.9625,24.4363636 16.2208333,20.7272727 C17.5666667,19.2 18.6291667,17.4545455 19.3375,15.5636364 C19.125,16.2181818 19.125,16.7272727 19.125,17.3090909 C19.125,22.6909091 21.6041667,27.7818182 26.1375,31.5636364 C26.2791667,31.7090909 26.4208333,31.7090909 26.5625,31.7090909 C26.7041667,31.7090909 26.9166667,31.6363636 26.9875,31.5636364 C31.5208333,27.7818182 34,22.6909091 34,17.3090909 C34,12.2909091 31.875,7.56363636 27.9083333,3.85454545 Z M15.0166667,19.7818182 C12.0416667,23.2 7.72083333,25.0181818 2.83333333,25.0181818 C2.83333333,25.0181818 2.83333333,25.0181818 2.83333333,25.0181818 C2.3375,25.0181818 1.9125,25.0181818 1.41666667,24.9454545 C1.0625,19.9272727 2.47916667,15.4181818 5.45416667,12.0727273 C7.72083333,9.6 10.625,8 13.9541667,7.27272727 C14.6625,7.2 15.4416667,7.05454545 16.2208333,6.90909091 C16.8583333,6.83636364 17.4958333,6.83636364 18.0625,6.83636364 L7.15416667,18.1090909 C6.87083333,18.4 6.87083333,18.8363636 7.15416667,19.1272727 C7.29583333,19.2727273 7.50833333,19.3454545 7.65,19.3454545 C7.8625,19.3454545 8.00416667,19.2727273 8.14583333,19.1272727 L19.125,7.92727273 C19.1958333,12.5090909 17.7791667,16.6545455 15.0166667,19.7818182 Z M20.4,6.18181818 C20.4,6.18181818 20.4,6.10909091 20.4,6.18181818 C21.5333333,5.81818182 22.6666667,5.52727273 23.8708333,5.16363636 C22.3125,6.90909091 21.1791667,8.8 20.3291667,10.7636364 C20.5416667,9.30909091 20.5416667,7.78181818 20.4,6.18181818 Z M26.5625,30.1090909 C22.6666667,26.6181818 20.5416667,22.1090909 20.5416667,17.3090909 C20.5416667,12.8 22.4541667,8.58181818 25.8541667,5.16363636 L25.8541667,21.0909091 C25.8541667,21.5272727 26.1375,21.8181818 26.5625,21.8181818 C26.9875,21.8181818 27.2708333,21.5272727 27.2708333,21.0909091 L27.2708333,5.23636364 C30.7416667,8.58181818 32.5833333,12.8727273 32.5833333,17.3818182 C32.5833333,22.1090909 30.4583333,26.6181818 26.5625,30.1090909 Z" id="Shape"></path>
                </g>
            </g>
        </g>
    </g>
</svg>